<svg height="328" preserveAspectRatio="xMidYMid" viewBox="0 0 256 328" width="256" xmlns="http://www.w3.org/2000/svg"><path d="m208.26192 138.798398c-14.691161 38.55747-51.907555 66.004029-95.623012 66.004029h-112.63830118v-81.920971-122.881456h112.63830118c56.561879 0 102.401213 45.8514708 102.401213 102.401214 0 12.840353-2.463697 25.073885-6.778201 36.397184z" fill="#07c"/><path d="m208.26192 138.798398c-15.825918-10.0247-34.534241-15.916942-54.662527-15.916942h-153.59878618v81.920971h112.63830118c43.715457 0 80.931851-27.446559 95.623012-66.004029" fill="#343741"/><path d="m232.315737 159.81143c-21.451158 44.528599-67.035627 75.336952-119.677436 75.336952h-112.638301v92.540356h153.598786c56.56188 0 102.401214-45.851471 102.401214-102.401213 0-24.910044-8.902079-47.726551-23.684263-65.476095" fill="#00bfb3"/></svg>